<svg id="Angular" xmlns="http://www.w3.org/2000/svg" viewBox="0 0 186.328 200">
  <title>angular</title>
  <g>
    <polygon points="93.1 0 93.1 0 93.1 0 0 33.2 14.2 156.3 93.1 200 93.1 200 93.1 200 172 156.3 186.2 33.2 93.1 0" style="fill: #dd0031"/>
    <polygon points="93.228 0 93.228 22.2 93.228 22.1 93.228 123.4 93.228 123.4 93.228 200 93.228 200 172.128 156.3 186.328 33.2 93.228 0" style="fill: #c3002f"/>
    <path d="M92.871,22.394,35.07,152H56.621l11.62-29H117.3l11.62,29h21.551L92.871,22.394Zm17,82.606h-34l17-40.9Z" transform="translate(0.228 0.253)" style="fill: #fff"/>
  </g>
</svg>
