<svg height="512" width="512" xmlns="http://www.w3.org/2000/svg" data-name="Layer 1"><path d="M429.67 255.23a113.038 113.038 0 11-47.97-10.67 112.607 112.607 0 0147.97 10.67z" fill="#00efd1"/><path d="M374.3 69.65c48.51 1.62 86.95 42.43 86.18 90.96a87.535 87.535 0 01-30.81 65.86v28.76a113.038 113.038 0 00-112.01 9.24 42.875 42.875 0 00-37.54-22.38l-81.56-.3a42.9 42.9 0 00-42.69 37.56l-6.35 50.74a42.888 42.888 0 01-42.55 37.55h-16.3a42.883 42.883 0 01-42.88-42.88v-98.29a90.8 90.8 0 01-30.29-67.35 89.66 89.66 0 01151.97-64.33q.285.27.54.54h138.43a89.2 89.2 0 0165.86-25.68z" fill="#00acea"/><path d="M282.89 74.72l16.99 20.61H178.11l16.99-20.61a37.776 37.776 0 0129.14-13.74h29.52a37.756 37.756 0 0129.13 13.74z" fill="#fedb41"/><path d="M354.646 401.721a5.977 5.977 0 01-3.706-1.285l-49.38-38.851a6 6 0 010-9.43l49.38-38.85a6 6 0 017.42 9.43l-43.386 34.135 43.386 34.135a6 6 0 01-3.714 10.716zM408.764 401.721a6 6 0 01-3.715-10.716l43.379-34.135-43.379-34.135a6 6 0 117.421-9.43l49.37 38.85a6 6 0 010 9.43l-49.37 38.851a5.981 5.981 0 01-3.706 1.285zM372.9 420.871a6 6 0 01-5.939-6.9L384.487 298.1a6 6 0 0111.866 1.794l-17.53 115.871a6 6 0 01-5.923 5.106z" fill="#00acea"/><g fill="#fedb41"><path d="M273 208h-68a6 6 0 010-12h68a6 6 0 010 12zM419.63 150.8a16.366 16.366 0 11-23.15-.16 16.372 16.372 0 0123.15.16zM379.41 110.59a16.362 16.362 0 11-23.14 0 16.362 16.362 0 0123.14 0zM379.36 190.53a16.366 16.366 0 11-23.15-.15 16.366 16.366 0 0123.15.15z"/><circle cx="327.84" cy="162.16" r="16.362"/><circle cx="110.24" cy="158.87" r="51.64"/></g></svg>