<svg xmlns="http://www.w3.org/2000/svg" viewBox="0 0 509.261 304.913">
  <title>html_css_js</title>
  <g id="Javascript">
    <g>
      <polygon points="509.261 55.557 408.573 55.557 408.573 55.557 307.884 55.557 326.754 260.27 408.573 283.466 408.573 283.466 408.573 283.466 408.573 283.466 408.573 283.466 490.362 260.27 509.261 55.557" style="fill: #e5a229"/>
      <polygon points="408.573 72.233 408.573 266.129 408.573 266.129 474.827 247.348 490.963 72.233 408.573 72.233" style="fill: #f1be21"/>
      <polygon points="461.285 97.352 359.377 97.352 352.294 174.003 352.445 173.522 439.01 173.522 436.185 205.944 408.573 213.905 380.538 205.824 378.856 186.202 353.405 186.202 357.042 225.414 408.573 240.047 460.103 225.414 467.196 148.463 375.34 148.463 376.511 122.803 440.267 122.803 441.204 137.489 466.883 137.489 461.285 97.352" style="fill: #fff"/>
      <path d="M409.866,96.986h-49.2l-7.082,76.65.15-.481h56.128V148.1H380.177l1.171-25.66h28.518Zm-29.717,88.85H354.7l3.636,39.211,51.531,14.6V213.539l-28.035-8.081Z" transform="translate(-1.294 0.366)" style="fill: #ebeaea"/>
      <g>
        <polygon points="388.977 25.36 371.069 25.36 371.069 38.22 388.977 38.22 398.564 38.22 401.809 38.22 401.809 0 388.977 0 388.977 25.36"/>
        <path d="M447.371-.172H416.136V13.211c4.175,4.18,6.357,6.179,12.4,12.224-3.535,0-12.4.012-12.4.012v12.21h31.235V25.445L434.9,13.211h12.476Z" transform="translate(-1.294 0.366)"/>
      </g>
    </g>
  </g>
  <g id="HTML">
    <g>
      <polygon points="17.64 253.859 0 56.011 193.828 56.011 176.17 253.828 96.795 275.834 17.64 253.859" style="fill: #e44d26"/>
      <polygon points="96.718 258.867 160.856 241.086 175.946 72.042 96.718 72.042 96.718 258.867" style="fill: #f16529"/>
      <polygon points="96.718 145.248 64.264 145.248 62.023 120.134 96.718 120.134 96.718 96.088 96.634 96.088 36.015 96.088 36.594 102.583 42.544 169.294 96.718 169.294 96.718 145.248" style="fill: #ebebeb"/>
      <polygon points="96.718 208.206 96.612 208.234 69.587 200.937 67.86 181.584 54.728 181.584 43.501 181.584 46.901 219.684 96.606 233.483 96.718 233.452 96.718 208.206" style="fill: #ebebeb"/>
      <path d="M19.461,1.675H31.752v12.29H42.973V1.675h12.29v36.87H42.973V26.256H31.752v12.29H19.462V1.675Z" transform="translate(-1.294 0.366)"/>
      <path d="M71.293,13.966H60.607V1.675h34.2v12.29H83.584v24.58H71.294V13.966Z" transform="translate(-1.294 0.366)"/>
      <path d="M100.149,1.675h12.9l7.938,12.955,7.93-12.955h12.909v36.87h-12.29v-18.9L121.1,33.2h-.211l-8.447-13.561v18.9h-12.29Z" transform="translate(-1.294 0.366)"/>
      <path d="M147.706,1.675H160v24.58h17.1v12.29H147.706Z" transform="translate(-1.294 0.366)"/>
      <polygon points="96.718 145.248 96.718 169.294 126.328 169.294 123.537 200.48 96.718 207.719 96.718 232.736 146.014 219.074 146.376 215.011 152.026 151.706 152.613 145.248 146.133 145.248 96.718 145.248" style="fill: #fff"/>
      <polygon points="96.718 96.622 96.718 111.557 96.718 120.609 96.718 120.668 154.722 120.668 154.722 120.668 154.8 120.668 155.282 115.263 156.377 103.073 156.953 96.622 96.718 96.622" style="fill: #fff"/>
    </g>
  </g>
  <g id="Css">
    <g>
      <path d="M304.717,45.609H288.938l16.435,17.844v8.508H271.492v-9.9h16.445L271.492,44.3V35.606h33.236Zm-39.894,0H249.012l16.457,17.844v8.508H231.588v-9.9h16.44L231.588,44.3V35.606h33.236Zm-39.582.43h-17.1v15.6h17.1V71.961H196.093V35.714h29.148Z" transform="translate(-1.294 0.366)"/>
      <path d="M172.838,282.96,155.5,88.525H345.987l-17.36,194.4-78,21.619Z" transform="translate(-1.294 0.366)" style="fill: #1572b6"/>
      <path d="M250.733,288.047l63.03-17.478,14.822-166.125H250.733Z" transform="translate(-1.294 0.366)" style="fill: #33a9dc"/>
      <path d="M250.733,174.9h31.558l2.173-24.416h-33.73V126.6H310.58l-.57,6.4-5.866,65.768H250.733Z" transform="translate(-1.294 0.366)" style="fill: #fff"/>
      <path d="M250.894,236.742h-.107l-26.5-7.159-1.7-18.977H198.665l3.342,37.4,48.8,13.581h.14V236.742Z" transform="translate(-1.294 0.366)" style="fill: #ebebeb"/>
      <path d="M280.312,197.709l-2.872,31.913-26.6,7.174v24.846l48.886-13.552.355-4.033,4.152-46.358H280.312Z" transform="translate(-1.294 0.366)" style="fill: #fff"/>
      <path d="M250.841,126.6v23.878H193.176l-.5-5.364-1.088-12.106-.571-6.408Zm-.108,48.294v23.878H224.442l-.463-5.364L222.891,181.3l-.571-6.408h28.412Z" transform="translate(-1.294 0.366)" style="fill: #ebebeb"/>
    </g>
  </g>
</svg>
