<?xml version="1.0" encoding="UTF-8" standalone="no"?>
<!-- Created with Inkscape (http://www.inkscape.org/) -->

<svg
   xmlns:dc="http://purl.org/dc/elements/1.1/"
   xmlns:cc="http://creativecommons.org/ns#"
   xmlns:rdf="http://www.w3.org/1999/02/22-rdf-syntax-ns#"
   xmlns:svg="http://www.w3.org/2000/svg"
   xmlns="http://www.w3.org/2000/svg"
   xmlns:sodipodi="http://sodipodi.sourceforge.net/DTD/sodipodi-0.dtd"
   xmlns:inkscape="http://www.inkscape.org/namespaces/inkscape"
   version="1.1"
   id="svg2"
   xml:space="preserve"
   width="682.66669"
   height="406.66666"
   viewBox="0 0 682.66669 406.66666"
   sodipodi:docname="HTML_CSS_JS_new.svg"
   inkscape:version="0.92.4 (5da689c313, 2019-01-14)"><metadata
     id="metadata8"><rdf:RDF><cc:Work
         rdf:about=""><dc:format>image/svg+xml</dc:format><dc:type
           rdf:resource="http://purl.org/dc/dcmitype/StillImage" /><dc:title></dc:title></cc:Work></rdf:RDF></metadata><defs
     id="defs6"><clipPath
       clipPathUnits="userSpaceOnUse"
       id="clipPath38"><path
         d="M 0,305 H 512 V 0 H 0 Z"
         id="path36"
         inkscape:connector-curvature="0" /></clipPath><clipPath
       clipPathUnits="userSpaceOnUse"
       id="clipPath50"><path
         d="M 0,305 H 512 V 0 H 0 Z"
         id="path48"
         inkscape:connector-curvature="0" /></clipPath></defs><sodipodi:namedview
     pagecolor="#ffffff"
     bordercolor="#666666"
     borderopacity="1"
     objecttolerance="10"
     gridtolerance="10"
     guidetolerance="10"
     inkscape:pageopacity="0"
     inkscape:pageshadow="2"
     inkscape:window-width="1920"
     inkscape:window-height="1001"
     id="namedview4"
     showgrid="false"
     inkscape:zoom="0.53466795"
     inkscape:cx="341.33334"
     inkscape:cy="203.33333"
     inkscape:window-x="-9"
     inkscape:window-y="-9"
     inkscape:window-maximized="1"
     inkscape:current-layer="g10" /><g
     id="g10"
     inkscape:groupmode="layer"
     inkscape:label="HTML_CSS_JS"
     transform="matrix(1.3333333,0,0,-1.3333333,0,406.66667)"><g
       id="g12"
       transform="translate(510.5547,249.8096)"><path
         d="m 0,0 h -100.688 -100.689 l 18.869,-204.713 81.82,-23.196 81.789,23.196 z"
         style="fill:#e5a229;fill-opacity:1;fill-rule:nonzero;stroke:none"
         id="path14"
         inkscape:connector-curvature="0" /></g><g
       id="g16"
       transform="translate(409.8662,233.1338)"><path
         d="M 0,0 V -193.896 L 66.255,-175.115 82.39,0 Z"
         style="fill:#f1be21;fill-opacity:1;fill-rule:nonzero;stroke:none"
         id="path18"
         inkscape:connector-curvature="0" /></g><g
       id="g20"
       transform="translate(462.5781,208.0142)"><path
         d="m 0,0 h -101.907 l -7.083,-76.651 0.15,0.482 h 86.565 l -2.825,-32.422 -27.612,-7.962 -28.035,8.081 -1.682,19.622 h -25.45 l 3.636,-39.212 51.531,-14.633 51.53,14.633 7.093,76.951 h -91.855 l 1.171,25.66 h 63.755 l 0.938,-14.686 H 5.599 Z"
         style="fill:#ffffff;fill-opacity:1;fill-rule:nonzero;stroke:none"
         id="path22"
         inkscape:connector-curvature="0" /></g><g
       id="g24"
       transform="translate(380.1494,119.1641)"><path
         d="m 0,0 h -25.45 l 3.636,-39.212 51.531,-14.601 v 26.11 l -28.035,8.081 z m 29.717,88.85 h -49.196 l -7.083,-76.651 0.151,0.482 H 29.717 V 37.739 H 0.028 l 1.17,25.66 h 28.519 z"
         style="fill:#ebeaea;fill-opacity:1;fill-rule:nonzero;stroke:none"
         id="path26"
         inkscape:connector-curvature="0" /></g><g
       id="g28"
       transform="translate(390.2706,305.0001)"><path
         d="m 0,0 v -24.994 h -17.908 v -12.86 H 0 9.587 12.832 V 0 Z"
         style="fill:#000000;fill-opacity:1;fill-rule:nonzero;stroke:none"
         id="path30"
         inkscape:connector-curvature="0" /></g><g
       id="g32"><g
         id="g34"
         clip-path="url(#clipPath38)"><g
           id="g40"
           transform="translate(447.3711,305.1724)"><path
             d="m 0,0 h -31.235 v -13.384 c 4.174,-4.179 6.357,-6.179 12.402,-12.224 -3.535,0 -12.402,-0.012 -12.402,-0.012 V -37.83 H 0 v 12.212 l -12.476,12.234 H 0 Z"
             style="fill:#000000;fill-opacity:1;fill-rule:nonzero;stroke:none"
             id="path42"
             inkscape:connector-curvature="0" /></g></g></g><g
       id="g56"
       transform="translate(18.9331,51.5068)"><path
         d="M 0,0 -17.64,197.848 H 176.188 L 158.53,0.031 79.156,-21.975 Z"
         style="fill:#e44d26;fill-opacity:1;fill-rule:nonzero;stroke:none"
         id="path58"
         inkscape:connector-curvature="0" /></g><g
       id="g60"
       transform="translate(98.0117,46.499)"><path
         d="M 0,0 64.138,17.781 79.229,186.825 H 0 Z"
         style="fill:#f16529;fill-opacity:1;fill-rule:nonzero;stroke:none"
         id="path62"
         inkscape:connector-curvature="0" /></g><g
       id="g64"
       transform="translate(98.0117,160.1182)"><path
         d="m 0,0 h -32.454 l -2.241,25.114 H 0 V 49.16 h -0.084 -60.619 l 0.579,-6.494 5.95,-66.712 H 0 Z"
         style="fill:#ebebeb;fill-opacity:1;fill-rule:nonzero;stroke:none"
         id="path66"
         inkscape:connector-curvature="0" /></g><g
       id="g68"
       transform="translate(98.0117,97.1602)"><path
         d="M 0,0 -0.106,-0.028 -27.131,7.27 -28.858,26.622 H -41.99 -53.217 l 3.4,-38.101 49.705,-13.797 0.112,0.03 z"
         style="fill:#ebebeb;fill-opacity:1;fill-rule:nonzero;stroke:none"
         id="path70"
         inkscape:connector-curvature="0" /></g><g
       id="g72"
       transform="translate(19.4609,303.3247)"><path
         d="M 0,0 H 12.291 V -12.29 H 23.512 V 0 h 12.29 v -36.871 h -12.29 v 12.29 H 12.291 v -12.29 H 0 Z"
         style="fill:#000000;fill-opacity:1;fill-rule:nonzero;stroke:none"
         id="path74"
         inkscape:connector-curvature="0" /></g><g
       id="g76"
       transform="translate(71.2935,291.0347)"><path
         d="M 0,0 H -10.687 V 12.29 H 23.512 V 0 H 12.291 V -24.581 H 0 Z"
         style="fill:#000000;fill-opacity:1;fill-rule:nonzero;stroke:none"
         id="path78"
         inkscape:connector-curvature="0" /></g><g
       id="g80"
       transform="translate(100.1489,303.3247)"><path
         d="M 0,0 H 12.904 L 20.841,-12.955 28.771,0 H 41.68 V -36.871 H 29.39 v 18.905 L 20.948,-31.527 H 20.737 L 12.29,-17.966 V -36.871 H 0 Z"
         style="fill:#000000;fill-opacity:1;fill-rule:nonzero;stroke:none"
         id="path82"
         inkscape:connector-curvature="0" /></g><g
       id="g84"
       transform="translate(147.7065,303.3247)"><path
         d="m 0,0 h 12.29 v -24.581 h 17.099 v -12.29 l -29.389,0 z"
         style="fill:#000000;fill-opacity:1;fill-rule:nonzero;stroke:none"
         id="path86"
         inkscape:connector-curvature="0" /></g><g
       id="g88"
       transform="translate(98.0117,160.1182)"><path
         d="M 0,0 V -24.046 H 29.61 L 26.819,-55.232 0,-62.471 v -25.017 l 49.296,13.663 0.361,4.062 5.651,63.306 L 55.895,0 h -6.48 z"
         style="fill:#ffffff;fill-opacity:1;fill-rule:nonzero;stroke:none"
         id="path90"
         inkscape:connector-curvature="0" /></g><g
       id="g92"
       transform="translate(98.0117,208.7441)"><path
         d="m 0,0 v -14.935 -9.052 -0.059 h 58.004 0.078 l 0.482,5.405 1.095,12.19 L 60.234,0 Z"
         style="fill:#ffffff;fill-opacity:1;fill-rule:nonzero;stroke:none"
         id="path94"
         inkscape:connector-curvature="0" /></g><g
       id="g96"
       transform="translate(225.2417,258.9604)"><path
         d="M 0,0 H -17.102 V -15.596 H 0 V -25.922 H -29.148 V 10.326 L 0,10.326 Z M 39.582,0.43 H 23.771 l 16.456,-17.844 v -8.508 H 6.346 v 9.896 h 16.44 L 6.346,1.74 v 8.693 h 33.236 z m 39.893,0 H 63.696 l 16.435,-17.844 v -8.508 H 46.25 v 9.896 H 62.696 L 46.25,1.74 v 8.693 h 33.236 z"
         style="fill:#000000;fill-opacity:1;fill-rule:nonzero;stroke:none"
         id="path98"
         inkscape:connector-curvature="0" /></g><g
       id="g100"
       transform="translate(155.5002,216.4743)"><path
         d="m 0,0 17.339,-194.434 77.786,-21.588 78.002,21.62 L 190.487,0 Z"
         style="fill:#1572b6;fill-opacity:1;fill-rule:nonzero;stroke:none"
         id="path102"
         inkscape:connector-curvature="0" /></g><g
       id="g104"
       transform="translate(250.7329,16.9521)"><path
         d="M 0,0 63.03,17.479 77.851,183.604 H 0 Z"
         style="fill:#33a9dc;fill-opacity:1;fill-rule:nonzero;stroke:none"
         id="path106"
         inkscape:connector-curvature="0" /></g><g
       id="g108"
       transform="translate(250.7329,130.1045)"><path
         d="m 0,0 h 31.558 l 2.173,24.416 H 0 V 48.294 H 59.847 L 59.277,41.89 53.411,-23.878 H 0 Z"
         style="fill:#ffffff;fill-opacity:1;fill-rule:nonzero;stroke:none"
         id="path110"
         inkscape:connector-curvature="0" /></g><g
       id="g112"
       transform="translate(250.8945,68.2578)"><path
         d="m 0,0 h -0.107 l -26.502,7.16 -1.696,18.978 h -23.924 l 3.341,-37.403 48.802,-13.581 h 0.14 L 0.054,0 Z"
         style="fill:#ebebeb;fill-opacity:1;fill-rule:nonzero;stroke:none"
         id="path114"
         inkscape:connector-curvature="0" /></g><g
       id="g116"
       transform="translate(280.3115,107.291)"><path
         d="m 0,0 -2.872,-31.912 -26.599,-7.175 v -24.846 l 48.886,13.553 0.355,4.033 4.151,46.358 H 0 Z"
         style="fill:#ffffff;fill-opacity:1;fill-rule:nonzero;stroke:none"
         id="path118"
         inkscape:connector-curvature="0" /></g><g
       id="g120"
       transform="translate(250.7329,130.1045)"><path
         d="m 0,0 v -23.878 h -26.291 l -0.463,5.363 -1.087,12.107 L -28.412,0 H -0.011 Z M 0.108,48.294 V 24.416 h -57.665 l -0.496,5.363 -1.088,12.107 -0.57,6.408 z"
         style="fill:#ebebeb;fill-opacity:1;fill-rule:nonzero;stroke:none"
         id="path122"
         inkscape:connector-curvature="0" /></g></g></svg>