<svg width="682" height="408" xmlns="http://www.w3.org/2000/svg">
 <metadata id="metadata3719">image/svg+xml</metadata>
 <defs>
  <clipPath id="clipPath3749" clipPathUnits="userSpaceOnUse">
   <path id="path3747" d="m0.75,629.133774l512,0l0,-512l-512,0l0,512z"/>
  </clipPath>
  <clipPath id="clipPath3761" clipPathUnits="userSpaceOnUse">
   <path id="path3759" d="m0,512l512,0l0,-512l-512,0l0,512z"/>
  </clipPath>
 </defs>
 <g>
  <title>background</title>
  <rect fill="none" id="canvas_background" height="410" width="684" y="-1" x="-1"/>
 </g>
 <g>
  <title>Layer 1</title>
  <g transform="matrix(1.3333333,0,0,-1.3333333,0,682.66667) " id="g3721">
   <g id="g3723">
    <path fill="#e5a229" fill-rule="nonzero" id="path3725" d="m511.304688,456.443375l-100.688,0l-100.689,0l18.869,-204.713l81.82,-23.196l81.789,23.196l18.899,204.713z"/>
   </g>
   <g id="g3727">
    <path fill="#f1be21" fill-rule="nonzero" id="path3729" d="m410.616211,439.767563l0,-193.896l66.255,18.781l16.135,175.115l-82.39,0z"/>
   </g>
   <g id="g3731">
    <path fill="#ffffff" fill-rule="nonzero" id="path3733" d="m463.328094,414.647964l-101.907,0l-7.083,-76.651l0.15,0.482l86.565,0l-2.825,-32.422l-27.612,-7.962l-28.035,8.081l-1.682,19.622l-25.45,0l3.636,-39.212l51.531,-14.633l51.53,14.633l7.093,76.951l-91.855,0l1.171,25.66l63.755,0l0.938,-14.686l25.679,0l-5.599,40.137z"/>
   </g>
   <g id="g3735">
    <path fill="#ebeaea" fill-rule="nonzero" id="path3737" d="m380.899414,325.797867l-25.45,0l3.636,-39.212l51.531,-14.601l0,26.11l-28.035,8.081l-1.682,19.622zm29.717,88.85l-49.196,0l-7.083,-76.651l0.151,0.482l56.128,0l0,25.058l-29.689,0l1.17,25.66l28.519,0l0,25.451z"/>
   </g>
   <g id="g3739">
    <path fill="#000000" fill-rule="nonzero" id="path3741" d="m391.020508,486.64006l-17.908,0l0,-12.86l17.908,0l9.587,0l3.245,0l0,38.22l-12.832,0l0,-25.36z"/>
   </g>
   <g id="g3743">
    <g clip-path="url(#clipPath3749)" id="g3745">
     <g id="g3751">
      <path fill="#000000" fill-rule="nonzero" id="path3753" d="m448.121094,511.806168l-31.235,0l0,-13.384c4.174,-4.179 6.357,-6.179 12.402,-12.224c-3.535,0 -12.402,-0.012 -12.402,-0.012l0,-12.21l31.235,0l0,12.212l-12.476,12.234l12.476,0l0,13.384z"/>
     </g>
    </g>
   </g>
   <g id="g3767">
    <path fill="#e44d26" fill-rule="nonzero" id="path3769" d="m19.6831,258.140579l-17.64,197.848l193.828,0l-17.658,-197.817l-79.374,-22.006l-79.156,21.975z"/>
   </g>
   <g id="g3771">
    <path fill="#f16529" fill-rule="nonzero" id="path3773" d="m98.761703,253.132767l64.138,17.781l15.091,169.044l-79.229,0l0,-186.825z"/>
   </g>
   <g id="g3775">
    <path fill="#ebebeb" fill-rule="nonzero" id="path3777" d="m98.761703,366.751968l-32.454,0l-2.241,25.114l34.695,0l0,24.046l-0.084,0l-60.619,0l0.579,-6.494l5.95,-66.712l54.174,0l0,24.046z"/>
   </g>
   <g id="g3779">
    <path fill="#ebebeb" fill-rule="nonzero" id="path3781" d="m98.761703,303.793976l-0.106,-0.028l-27.025,7.298l-1.727,19.352l-13.132,0l-11.227,0l3.4,-38.101l49.705,-13.797l0.112,0.03l0,25.246z"/>
   </g>
   <g id="g3783">
    <path fill="#000000" fill-rule="nonzero" id="path3785" d="m20.210899,509.958481l12.291,0l0,-12.29l11.221,0l0,12.29l12.29,0l0,-36.871l-12.29,0l0,12.29l-11.221,0l0,-12.29l-12.291,0l0,36.871z"/>
   </g>
   <g id="g3787">
    <path fill="#000000" fill-rule="nonzero" id="path3789" d="m72.043503,497.668472l-10.687,0l0,12.29l34.199,0l0,-12.29l-11.221,0l0,-24.581l-12.291,0l0,24.581z"/>
   </g>
   <g id="g3791">
    <path fill="#000000" fill-rule="nonzero" id="path3793" d="m100.898903,509.958481l12.904,0l7.937,-12.955l7.93,12.955l12.909,0l0,-36.871l-12.29,0l0,18.905l-8.442,-13.561l-0.211,0l-8.447,13.561l0,-18.905l-12.29,0l0,36.871z"/>
   </g>
   <g id="g3795">
    <path fill="#000000" fill-rule="nonzero" id="path3797" d="m148.456497,509.958481l12.29,0l0,-24.581l17.099,0l0,-12.29l-29.389,0l0,36.871z"/>
   </g>
   <g id="g3799">
    <path fill="#ffffff" fill-rule="nonzero" id="path3801" d="m98.761703,366.751968l0,-24.046l29.61,0l-2.791,-31.186l-26.819,-7.239l0,-25.017l49.296,13.663l0.361,4.062l5.651,63.306l0.587,6.457l-6.48,0l-49.415,0z"/>
   </g>
   <g id="g3803">
    <path fill="#ffffff" fill-rule="nonzero" id="path3805" d="m98.761703,415.377884l0,-14.935l0,-9.052l0,-0.059l58.004,0l0.078,0l0.482,5.405l1.095,12.19l0.575,6.451l-60.234,0z"/>
   </g>
   <g id="g3807">
    <path fill="#000000" fill-rule="nonzero" id="path3809" d="m225.991699,465.594162l-17.102,0l0,-15.596l17.102,0l0,-10.326l-29.148,0l0,36.248l29.148,0l0,-10.326zm39.582,0.43l-15.811,0l16.456,-17.844l0,-8.508l-33.881,0l0,9.896l16.44,0l-16.44,17.766l0,8.693l33.236,0l0,-10.003zm39.893,10.003l-15.779,0l16.435,-17.844l0,-8.508l-33.881,0l0,9.896l16.446,0l-16.446,7.763l0,8.693l33.236,0l-0.011,0z"/>
   </g>
   <g id="g3811">
    <path fill="#1572b6" fill-rule="nonzero" id="path3813" d="m173.588394,228.673775l-17.338,194.435l190.487,0l-17.36,-194.403l-78.002,-21.619l-77.787,21.587z"/>
   </g>
   <g id="g3815">
    <path fill="#33a9dc" fill-rule="nonzero" id="path3817" d="m251.482895,223.585876l63.03,17.479l14.821,166.125l-77.851,0l0,-183.604z"/>
   </g>
   <g id="g3819">
    <path fill="#ffffff" fill-rule="nonzero" id="path3821" d="m251.482895,336.738281l31.558,0l2.173,24.416l-33.731,0l0,23.878l59.847,0l-0.57,-6.404l-5.866,-65.768l-53.411,0l0,23.878z"/>
   </g>
   <g id="g3823">
    <path fill="#ebebeb" fill-rule="nonzero" id="path3825" d="m251.644501,274.891571l-0.107,0l-26.502,7.16l-1.696,18.978l-23.924,0l3.341,-37.403l48.802,-13.581l0.14,0l0,24.846l-0.054,0z"/>
   </g>
   <g id="g3827">
    <path fill="#ffffff" fill-rule="nonzero" id="path3829" d="m281.061493,313.924774l-2.872,-31.912l-26.599,-7.175l0,-24.846l48.886,13.553l0.355,4.033l4.151,46.358l-23.921,0l0,-0.011z"/>
   </g>
   <g id="g3831">
    <path fill="#ebebeb" fill-rule="nonzero" id="path3833" d="m251.482895,336.738281l0,-23.878l-26.291,0l-0.463,5.363l-1.087,12.107l-0.571,6.408l28.401,0l0.011,0zm0.119,48.294l0,-23.878l-57.665,0l-0.496,5.363l-1.088,12.107l-0.57,6.408l59.819,0z"/>
   </g>
  </g>
 </g>
</svg>