<svg id="Layer_1" data-name="Layer 1" xmlns="http://www.w3.org/2000/svg" xmlns:xlink="http://www.w3.org/1999/xlink" viewBox="0 0 442.412 270.953">
  <defs>
    <linearGradient id="linear-gradient" x1="116.178" y1="115.529" x2="210.382" y2="115.529" gradientUnits="userSpaceOnUse">
      <stop offset="0.005"/>
      <stop offset="0.192" stop-color="#171717"/>
      <stop offset="0.541" stop-color="#3c3c3c"/>
      <stop offset="0.823" stop-color="#545454"/>
      <stop offset="1" stop-color="#5c5c5c"/>
    </linearGradient>
    <clipPath id="clip-path">
      <path id="_Clipping_Path_" data-name="&lt;Clipping Path&gt;" d="M165.823,62.594a5.075,5.075,0,0,0-5.075,0l-42.03,24.255a5.074,5.074,0,0,0-2.539,4.4v48.546a5.08,5.08,0,0,0,2.538,4.4l42.03,24.274a5.08,5.08,0,0,0,5.078,0l42.021-24.274a5.08,5.08,0,0,0,2.537-4.4V91.244a5.073,5.073,0,0,0-2.539-4.4Z" style="fill: none;clip-rule: evenodd"/>
    </clipPath>
    <linearGradient id="linear-gradient-2" x1="115.527" y1="115.46" x2="212.705" y2="115.46" gradientUnits="userSpaceOnUse">
      <stop offset="0" stop-color="#5c5c5c"/>
      <stop offset="0.177" stop-color="#545454"/>
      <stop offset="0.459" stop-color="#3c3c3c"/>
      <stop offset="0.808" stop-color="#171717"/>
      <stop offset="0.995"/>
    </linearGradient>
  </defs>
  <title>nodejs-black</title>
  <g>
    <g>
      <path d="M218.668,270.953a8.374,8.374,0,0,1-4.19-1.121l-13.34-7.892c-1.991-1.115-1.018-1.509-.362-1.738a26.6,26.6,0,0,0,6.031-2.744,1.025,1.025,0,0,1,.992.076l10.248,6.084a1.317,1.317,0,0,0,1.238,0l39.953-23.061a1.26,1.26,0,0,0,.61-1.081V193.368a1.289,1.289,0,0,0-.62-1.1l-39.937-23.04a1.251,1.251,0,0,0-1.231,0l-39.927,23.047a1.284,1.284,0,0,0-.634,1.095v46.108a1.225,1.225,0,0,0,.63,1.068l10.945,6.324c5.938,2.969,9.574-.528,9.574-4.041V197.3a1.15,1.15,0,0,1,1.161-1.151h5.066a1.153,1.153,0,0,1,1.158,1.151v45.524c0,7.926-4.316,12.471-11.83,12.471-2.309,0-4.127,0-9.2-2.5l-10.477-6.031a8.439,8.439,0,0,1-4.19-7.289V193.368a8.419,8.419,0,0,1,4.19-7.282L214.478,163a8.754,8.754,0,0,1,8.4,0l39.95,23.087a8.434,8.434,0,0,1,4.2,7.282v46.108a8.457,8.457,0,0,1-4.2,7.289l-39.95,23.067A8.38,8.38,0,0,1,218.668,270.953Z" style="fill: #699f63"/>
      <path d="M231.009,239.187c-17.483,0-21.146-8.025-21.146-14.756a1.148,1.148,0,0,1,1.155-1.151h5.165a1.157,1.157,0,0,1,1.148.979c.78,5.258,3.105,7.912,13.678,7.912,8.417,0,12-1.9,12-6.37,0-2.574-1.015-4.485-14.1-5.766-10.931-1.081-17.693-3.5-17.693-12.242,0-8.062,6.794-12.869,18.187-12.869,12.8,0,19.132,4.442,19.935,13.974a1.155,1.155,0,0,1-1.151,1.257h-5.185a1.151,1.151,0,0,1-1.121-.9c-1.244-5.534-4.27-7.3-12.477-7.3-9.19,0-10.258,3.2-10.258,5.6,0,2.906,1.261,3.752,13.669,5.394,12.278,1.623,18.11,3.921,18.11,12.551C250.928,234.2,243.669,239.187,231.009,239.187Z" style="fill: #699f63"/>
    </g>
    <path d="M288.62,190.832a7.7,7.7,0,1,1-7.7-7.7A7.721,7.721,0,0,1,288.62,190.832Zm-14.156-.021a6.458,6.458,0,1,0,6.436-6.436A6.46,6.46,0,0,0,274.464,190.81Zm3.563-4.3H281c1.018,0,3.016,0,3.016,2.283a1.985,1.985,0,0,1-1.632,2.118c1.184.082,1.264.856,1.426,1.956a8.506,8.506,0,0,0,.448,2.281h-1.831c-.043-.406-.329-2.608-.329-2.729-.119-.49-.285-.733-.9-.733H279.7v3.462h-1.672Zm1.632,3.789H281a1.161,1.161,0,0,0,1.3-1.221c0-1.183-.816-1.183-1.264-1.183h-1.383Z" style="fill: #699f63"/>
    <path d="M94.946,90.559a5.109,5.109,0,0,0-2.558-4.446L50.029,61.735a4.993,4.993,0,0,0-2.332-.674h-.438a5.064,5.064,0,0,0-2.339.674L2.561,86.113A5.133,5.133,0,0,0,0,90.559L.093,156.2a2.514,2.514,0,0,0,1.277,2.21,2.461,2.461,0,0,0,2.541,0l25.174-14.415a5.155,5.155,0,0,0,2.561-4.439V108.888a5.1,5.1,0,0,1,2.554-4.429L44.92,98.285a5.09,5.09,0,0,1,2.565-.687,5.01,5.01,0,0,1,2.544.687l10.716,6.174a5.1,5.1,0,0,1,2.558,4.429v30.668a5.166,5.166,0,0,0,2.565,4.439l25.167,14.415a2.491,2.491,0,0,0,2.558,0,2.556,2.556,0,0,0,1.271-2.21Z" style="fill: #333;fill-rule: evenodd"/>
    <path d="M298.763.324a2.559,2.559,0,0,0-3.806,2.234V67.564a1.79,1.79,0,0,1-2.685,1.551L281.662,63a5.118,5.118,0,0,0-5.112,0L234.174,87.46a5.115,5.115,0,0,0-2.559,4.431v48.921a5.121,5.121,0,0,0,2.558,4.432l42.374,24.474a5.12,5.12,0,0,0,5.119,0l42.38-24.474a5.121,5.121,0,0,0,2.558-4.432V18.864a5.117,5.117,0,0,0-2.624-4.469Zm-3.932,124.414a1.276,1.276,0,0,1-.64,1.106l-14.549,8.387a1.281,1.281,0,0,1-1.277,0l-14.55-8.387a1.275,1.275,0,0,1-.64-1.106v-16.8a1.282,1.282,0,0,1,.639-1.108l14.549-8.4a1.279,1.279,0,0,1,1.28,0l14.549,8.4a1.283,1.283,0,0,1,.639,1.108Z" style="fill: #333;fill-rule: evenodd"/>
    <g>
      <path d="M439.866,107.5a5.117,5.117,0,0,0,2.546-4.424V91.219a5.117,5.117,0,0,0-2.548-4.426l-42.1-24.446a5.117,5.117,0,0,0-5.127-.007L350.274,86.8a5.116,5.116,0,0,0-2.558,4.431v48.908a5.115,5.115,0,0,0,2.585,4.446l42.1,23.988a5.115,5.115,0,0,0,5.018.028l25.462-14.153a2.559,2.559,0,0,0,.032-4.455l-42.629-24.467a2.558,2.558,0,0,1-1.285-2.22V107.974a2.557,2.557,0,0,1,1.28-2.216l13.267-7.649a2.555,2.555,0,0,1,2.554,0l13.274,7.649a2.557,2.557,0,0,1,1.28,2.216v12.059a2.559,2.559,0,0,0,3.844,2.213Z" style="fill: #333;fill-rule: evenodd"/>
      <path d="M394.573,105.207a.98.98,0,0,1,.982,0l8.131,4.691a.983.983,0,0,1,.491.851v9.389a.983.983,0,0,1-.491.851l-8.131,4.691a.98.98,0,0,1-.982,0l-8.125-4.691a.983.983,0,0,1-.491-.851v-9.389a.983.983,0,0,1,.491-.851Z" style="fill: #699f63;fill-rule: evenodd"/>
    </g>
    <g>
      <path id="_Path_" data-name="&lt;Path&gt;" d="M160.738,62.594a5.075,5.075,0,0,1,5.075,0l42.03,24.255a5.074,5.074,0,0,1,2.539,4.4v48.546a5.08,5.08,0,0,1-2.538,4.4l-42.03,24.274a5.08,5.08,0,0,1-5.078,0l-42.021-24.274a5.08,5.08,0,0,1-2.537-4.4V91.244a5.073,5.073,0,0,1,2.539-4.4Z" style="fill-rule: evenodd;fill: url(#linear-gradient)"/>
      <g style="clip-path: url(#clip-path)">
        <g>
          <path d="M160.689,62.594l-42.07,24.255a5.167,5.167,0,0,0-2.637,4.4v48.548a5,5,0,0,0,1.182,3.182l47.3-80.907A5.118,5.118,0,0,0,160.689,62.594Z" style="fill: none"/>
          <path d="M164.728,168.891a5.1,5.1,0,0,0,.986-.428l41.93-24.274a4.9,4.9,0,0,0,2.337-4.4V91.246a5.265,5.265,0,0,0-1.066-3.269Z" style="fill: none"/>
          <path d="M207.631,86.849,165.788,62.594a5.051,5.051,0,0,0-1.327-.527l-47.3,80.907a5.334,5.334,0,0,0,1.428,1.214l42.094,24.274a4.973,4.973,0,0,0,4.042.428l44.188-80.914A4.454,4.454,0,0,0,207.631,86.849Z" style="fill: #b4b4b4;opacity: 0.66"/>
        </g>
        <g>
          <path d="M119.1,86.574l-.477.275a5.167,5.167,0,0,0-2.637,4.4v48.548a5.15,5.15,0,0,0,2.61,4.4l42.094,24.274a4.98,4.98,0,0,0,3.656.539Z" style="fill: none"/>
          <path d="M209.982,91.246a4.907,4.907,0,0,0-2.351-4.4L165.788,62.594a5.051,5.051,0,0,0-1.166-.486l45.36,77.493Z" style="fill: none"/>
          <path d="M165.714,168.463l41.93-24.274a4.9,4.9,0,0,0,2.337-4.4v-.19l-45.36-77.493a5.119,5.119,0,0,0-3.933.486L119.1,86.574,164.342,169A5.075,5.075,0,0,0,165.714,168.463Z" style="fill: url(#linear-gradient-2)"/>
        </g>
      </g>
    </g>
  </g>
</svg>
