<svg id="Unity" xmlns="http://www.w3.org/2000/svg" viewBox="0 0 769.093 278.613">
  <title>unity</title>
  <path id="path2" d="M231.2,253.433,181.354,169.59,231.2,85.747l24.029,83.843Zm-110.936-9.3L57.636,182.02h99.69l49.845,83.843Zm0-149.325,86.653-21.728-49.845,83.843H57.382ZM247.856,31.56,134.307,61.037,117.39,90,83.3,89.742l-83.3,81,83.3,81,34.088-.257,16.917,28.962,113.548,29.734,30.5-110.473-17.174-28.705,17.174-28.708Zm258,82.365c-15.276,0-25.634,6.3-33.4,17.9h-.517V115.1H444.053V223.848h27.885V163.455c-.206-15.08,9.253-25.562,22.289-25.562,12.269,0,21.472,7.415,22.327,20.451v68.293h27.885V155.024C544.7,131.071,529.161,113.925,505.857,113.925ZM401.975,179.232c0,14.821-8.216,25.041-21.661,25.041-12.2,0-19.917-7.153-19.917-20.185V115.1H335.3V188.8c0,24.144,13.541,39.9,37.866,39.9,15.3,0,23.821-5.848,31.1-16.012h.752v13.943h25.1V115.1H402.225v64.136ZM555.594,115.1h27.885V226.637H555.594Zm0-33.462h27.885v22.308H555.594ZM739.636,115.1l-16.3,50.709a222.553,222.553,0,0,0-6.469,24.581h-.776s-3.621-14.231-7.243-24.581L690.477,115.1H661.093L691.3,194.879c6.456,17.041,8.52,24.269,8.52,30.465,0,9.3-4.9,15.235-16.523,15.235H672.712v22.308h17.573c22.737,0,30.748-8.979,39.275-33.611L769.093,115.1Zm-103.175,78.5V134.616h16.731V115.1H636.461V81.634H608.576V115.1H591.844v19.52h16.731V199.8c0,20.961,15.717,26.586,29.912,26.586,11.662,0,14.7-.513,14.7-.513V204.329h-6.453c-5.976.257-10.278-2.554-10.278-10.736Z" transform="translate(0 -31.56)" style="fill: #110b09"/>
</svg>
