{
    "asset" : {
        "generator" : "Khronos glTF Blender I/O v0.9.36",
        "version" : "2.0"
    },
    "scene" : 0,
    "scenes" : [
        {
            "name" : "Scene",
            "nodes" : [
                0,
                1
            ]
        }
    ],
    "nodes" : [
        {
            "name" : "Sun",
            "translation" : [
                5.6440510749816895,
                2.1190860271453857,
                -7.08695125579834
            ]
        },
        {
            "mesh" : 0,
            "name" : "Boat",
            "rotation" : [
                0,
                -0.7070140838623047,
                0,
                0.7071994543075562
            ]
        }
    ],
    "materials" : [
        {
            "doubleSided" : true,
            "name" : "Oak Wood",
            "pbrMetallicRoughness" : {
                "baseColorFactor" : [
                    0.2581830620765686,
                    0.07227182388305664,
                    0.00651209894567728,
                    1
                ],
                "metallicFactor" : 0,
                "roughnessFactor" : 0.5
            }
        },
        {
            "doubleSided" : true,
            "name" : "Inside Wood",
            "pbrMetallicRoughness" : {
                "baseColorFactor" : [
                    0.4677838385105133,
                    0.3277781307697296,
                    0.07227188348770142,
                    1
                ],
                "metallicFactor" : 0,
                "roughnessFactor" : 0.5
            }
        },
        {
            "doubleSided" : true,
            "name" : "Paint",
            "pbrMetallicRoughness" : {
                "baseColorFactor" : [
                    0.5332766771316528,
                    0.3231431841850281,
                    0.14702732861042023,
                    1
                ],
                "metallicFactor" : 0,
                "roughnessFactor" : 0.5
            }
        }
    ],
    "meshes" : [
        {
            "name" : "Cube",
            "primitives" : [
                {
                    "attributes" : {
                        "POSITION" : 0,
                        "NORMAL" : 1
                    },
                    "indices" : 2,
                    "material" : 0
                },
                {
                    "attributes" : {
                        "POSITION" : 3,
                        "NORMAL" : 4
                    },
                    "indices" : 5,
                    "material" : 1
                },
                {
                    "attributes" : {
                        "POSITION" : 6,
                        "NORMAL" : 7
                    },
                    "indices" : 8,
                    "material" : 2
                }
            ]
        }
    ],
    "accessors" : [
        {
            "bufferView" : 0,
            "componentType" : 5126,
            "count" : 629,
            "max" : [
                4.7514495849609375,
                1.2677199840545654,
                1.3283307552337646
            ],
            "min" : [
                -3.4896597862243652,
                -0.002551168203353882,
                -1.3283307552337646
            ],
            "type" : "VEC3"
        },
        {
            "bufferView" : 1,
            "componentType" : 5126,
            "count" : 629,
            "type" : "VEC3"
        },
        {
            "bufferView" : 2,
            "componentType" : 5123,
            "count" : 1011,
            "type" : "SCALAR"
        },
        {
            "bufferView" : 3,
            "componentType" : 5126,
            "count" : 226,
            "max" : [
                4.483859062194824,
                0.7989015579223633,
                1.3283307552337646
            ],
            "min" : [
                -3.426337957382202,
                0.007650971412658691,
                -1.3283307552337646
            ],
            "type" : "VEC3"
        },
        {
            "bufferView" : 4,
            "componentType" : 5126,
            "count" : 226,
            "type" : "VEC3"
        },
        {
            "bufferView" : 5,
            "componentType" : 5123,
            "count" : 348,
            "type" : "SCALAR"
        },
        {
            "bufferView" : 6,
            "componentType" : 5126,
            "count" : 332,
            "max" : [
                3.613938808441162,
                0.6215708255767822,
                1.383285403251648
            ],
            "min" : [
                -3.1173675060272217,
                -0.002551168203353882,
                -1.383285403251648
            ],
            "type" : "VEC3"
        },
        {
            "bufferView" : 7,
            "componentType" : 5126,
            "count" : 332,
            "type" : "VEC3"
        },
        {
            "bufferView" : 8,
            "componentType" : 5123,
            "count" : 480,
            "type" : "SCALAR"
        }
    ],
    "bufferViews" : [
        {
            "buffer" : 0,
            "byteLength" : 7548,
            "byteOffset" : 0
        },
        {
            "buffer" : 0,
            "byteLength" : 7548,
            "byteOffset" : 7548
        },
        {
            "buffer" : 0,
            "byteLength" : 2022,
            "byteOffset" : 15096
        },
        {
            "buffer" : 0,
            "byteLength" : 2712,
            "byteOffset" : 17120
        },
        {
            "buffer" : 0,
            "byteLength" : 2712,
            "byteOffset" : 19832
        },
        {
            "buffer" : 0,
            "byteLength" : 696,
            "byteOffset" : 22544
        },
        {
            "buffer" : 0,
            "byteLength" : 3984,
            "byteOffset" : 23240
        },
        {
            "buffer" : 0,
            "byteLength" : 3984,
            "byteOffset" : 27224
        },
        {
            "buffer" : 0,
            "byteLength" : 960,
            "byteOffset" : 31208
        }
    ],
    "buffers" : [
        {
            "byteLength" : 32168,
            "uri" : "data:application/octet-stream;base64,"
        }
    ]
}
