{
    "asset" : {
        "generator" : "Khronos glTF Blender I/O v0.9.36",
        "version" : "2.0"
    },
    "scene" : 0,
    "scenes" : [
        {
            "name" : "Scene",
            "nodes" : [
                0
            ]
        }
    ],
    "nodes" : [
        {
            "mesh" : 0,
            "name" : "Spaceship3"
        }
    ],
    "materials" : [
        {
            "doubleSided" : true,
            "name" : "White",
            "pbrMetallicRoughness" : {
                "baseColorFactor" : [
                    0.4793202877044678,
                    0.5711249709129333,
                    0.7991030216217041,
                    1
                ],
                "metallicFactor" : 0,
                "roughnessFactor" : 0.5
            }
        },
        {
            "doubleSided" : true,
            "name" : "Blue",
            "pbrMetallicRoughness" : {
                "baseColorFactor" : [
                    0.002428211271762848,
                    0,
                    0.09530750662088394,
                    1
                ],
                "metallicFactor" : 0,
                "roughnessFactor" : 0.5
            }
        }
    ],
    "meshes" : [
        {
            "name" : "Cube",
            "primitives" : [
                {
                    "attributes" : {
                        "POSITION" : 0,
                        "NORMAL" : 1,
                        "COLOR_0" : 2
                    },
                    "indices" : 3,
                    "material" : 0
                },
                {
                    "attributes" : {
                        "POSITION" : 4,
                        "NORMAL" : 5,
                        "COLOR_0" : 6
                    },
                    "indices" : 7,
                    "material" : 1
                }
            ]
        }
    ],
    "accessors" : [
        {
            "bufferView" : 0,
            "componentType" : 5126,
            "count" : 2086,
            "max" : [
                5.191188812255859,
                1.7133063077926636,
                6.158316135406494
            ],
            "min" : [
                -5.191188812255859,
                -0.14541268348693848,
                -3.0510878562927246
            ],
            "type" : "VEC3"
        },
        {
            "bufferView" : 1,
            "componentType" : 5126,
            "count" : 2086,
            "type" : "VEC3"
        },
        {
            "bufferView" : 2,
            "componentType" : 5126,
            "count" : 2086,
            "type" : "VEC4"
        },
        {
            "bufferView" : 3,
            "componentType" : 5123,
            "count" : 3378,
            "type" : "SCALAR"
        },
        {
            "bufferView" : 4,
            "componentType" : 5126,
            "count" : 38,
            "max" : [
                0.5759172439575195,
                1.4037076234817505,
                3.1762447357177734
            ],
            "min" : [
                -0.5759174823760986,
                0.9234120845794678,
                1.730276107788086
            ],
            "type" : "VEC3"
        },
        {
            "bufferView" : 5,
            "componentType" : 5126,
            "count" : 38,
            "type" : "VEC3"
        },
        {
            "bufferView" : 6,
            "componentType" : 5126,
            "count" : 38,
            "type" : "VEC4"
        },
        {
            "bufferView" : 7,
            "componentType" : 5123,
            "count" : 192,
            "type" : "SCALAR"
        }
    ],
    "bufferViews" : [
        {
            "buffer" : 0,
            "byteLength" : 25032,
            "byteOffset" : 0
        },
        {
            "buffer" : 0,
            "byteLength" : 25032,
            "byteOffset" : 25032
        },
        {
            "buffer" : 0,
            "byteLength" : 33376,
            "byteOffset" : 50064
        },
        {
            "buffer" : 0,
            "byteLength" : 6756,
            "byteOffset" : 83440
        },
        {
            "buffer" : 0,
            "byteLength" : 456,
            "byteOffset" : 90196
        },
        {
            "buffer" : 0,
            "byteLength" : 456,
            "byteOffset" : 90652
        },
        {
            "buffer" : 0,
            "byteLength" : 608,
            "byteOffset" : 91108
        },
        {
            "buffer" : 0,
            "byteLength" : 384,
            "byteOffset" : 91716
        }
    ],
    "buffers" : [
        {
            "byteLength" : 92100,
            "uri" : "data:application/octet-stream;base64,"
        }
    ]
}
